<svg width="957" height="696" viewBox="0 0 957 696" fill="none" xmlns="http://www.w3.org/2000/svg">
<g id="Rocket" clip-path="url(#clip0)">
<rect width="957" height="696" fill="#F8F8F8"/>
<path id="Vector" d="M835.451 607.51C827.676 608.188 819.853 608.082 812.099 607.194C726.851 597.637 610.764 600.356 516.133 659.807C385.26 742.014 180.157 671.638 89.6825 633.351C20.5534 604.108 -15.3348 532.484 6.22171 465.254C6.5252 464.305 6.83713 463.356 7.16591 462.407C20.7304 422.453 47.5053 391.185 80.662 374.61C109.561 360.164 151.755 329.998 170.53 272.033C178.286 248.099 188.925 225.583 202.742 205.957C239.743 153.395 317.202 75.1201 450.418 75.6073C473.775 75.7221 496.957 79.7008 519.05 87.3866C567.719 104.201 611.675 138.384 645.194 185.775C666.582 216.001 698.634 244.098 744.521 246.389C808.204 249.586 868.978 279.65 914.57 333.152C915.885 334.69 917.183 336.238 918.482 337.802C999.658 435.857 943.275 597.954 835.451 607.51Z" fill="#504DE4"/>
<g id="Group" opacity="0.7">
<path id="Vector_2" opacity="0.7" d="M233.909 595.894C240.335 595.894 245.543 590.612 245.543 584.097C245.543 577.582 240.335 572.301 233.909 572.301C227.484 572.301 222.275 577.582 222.275 584.097C222.275 590.612 227.484 595.894 233.909 595.894Z" fill="url(#paint0_linear)"/>
</g>
<path id="Vector_3" opacity="0.2" d="M233.909 595.364C240.046 595.364 245.021 590.32 245.021 584.097C245.021 577.875 240.046 572.831 233.909 572.831C227.773 572.831 222.798 577.875 222.798 584.097C222.798 590.32 227.773 595.364 233.909 595.364Z" fill="black"/>
<path id="Vector_4" d="M171.229 358.369C173.604 358.369 175.529 356.417 175.529 354.009C175.529 351.602 173.604 349.65 171.229 349.65C168.855 349.65 166.93 351.602 166.93 354.009C166.93 356.417 168.855 358.369 171.229 358.369Z" fill="white"/>
<path id="Vector_5" d="M478.095 611.391C480.47 611.391 482.395 609.44 482.395 607.032C482.395 604.624 480.47 602.672 478.095 602.672C475.721 602.672 473.796 604.624 473.796 607.032C473.796 609.44 475.721 611.391 478.095 611.391Z" fill="white"/>
<path id="Vector_6" d="M296.842 631.693C298.169 631.693 299.245 630.602 299.245 629.257C299.245 627.911 298.169 626.821 296.842 626.821C295.515 626.821 294.439 627.911 294.439 629.257C294.439 630.602 295.515 631.693 296.842 631.693Z" fill="white"/>
<path id="Vector_7" d="M828.799 513.73C830.126 513.73 831.202 512.639 831.202 511.294C831.202 509.948 830.126 508.857 828.799 508.857C827.472 508.857 826.396 509.948 826.396 511.294C826.396 512.639 827.472 513.73 828.799 513.73Z" fill="white"/>
<path id="Vector_8" d="M691.384 294.899C692.711 294.899 693.787 293.809 693.787 292.463C693.787 291.118 692.711 290.027 691.384 290.027C690.057 290.027 688.981 291.118 688.981 292.463C688.981 293.809 690.057 294.899 691.384 294.899Z" fill="white"/>
<path id="Vector_9" d="M886.126 401.75C887.453 401.75 888.528 400.659 888.528 399.314C888.528 397.969 887.453 396.878 886.126 396.878C884.799 396.878 883.723 397.969 883.723 399.314C883.723 400.659 884.799 401.75 886.126 401.75Z" fill="white"/>
<path id="Vector_10" d="M247.103 215.616C249.477 215.616 251.402 213.664 251.402 211.257C251.402 208.849 249.477 206.897 247.103 206.897C244.728 206.897 242.803 208.849 242.803 211.257C242.803 213.664 244.728 215.616 247.103 215.616Z" fill="white"/>
<path id="Vector_11" d="M128.934 506.225H125.107V502.344H123.547V506.225H119.72V507.806H123.547V511.678H125.107V507.806H128.934V506.225Z" fill="white"/>
<path id="Vector_12" d="M225.041 504.515H221.213V500.634H219.654V504.515H215.826V506.096H219.654V509.969H221.213V506.096H225.041V504.515Z" fill="white"/>
<path id="Vector_13" d="M362.456 583.157H358.628V579.276H357.069V583.157H353.241V584.739H357.069V588.611H358.628V584.739H362.456V583.157Z" fill="white"/>
<path id="Vector_14" d="M553.851 111.732H552.106V109.962H551.397V111.732H549.652V112.45H551.397V114.219H552.106V112.45H553.851V111.732Z" fill="white"/>
<path id="Vector_15" d="M802.547 274.145H800.802V272.375H800.094V274.145H798.349V274.863H800.094V276.632H800.802V274.863H802.547V274.145Z" fill="white"/>
<path id="Vector_16" d="M655.858 380.141H654.113V378.371H653.405V380.141H651.66V380.859H653.405V382.628H654.113V380.859H655.858V380.141Z" fill="white"/>
<path id="Vector_17" d="M58.9874 446.816H57.2423V445.046H56.5342V446.816H54.7891V447.534H56.5342V449.303H57.2423V447.534H58.9874V446.816Z" fill="white"/>
<path id="Vector_18" d="M130.646 592.133H128.901V590.363H128.192V592.133H126.447V592.851H128.192V594.62H128.901V592.851H130.646V592.133Z" fill="white"/>
<path id="Vector_19" d="M355.737 133.102H353.992V131.332H353.284V133.102H351.538V133.82H353.284V135.589H353.992V133.82H355.737V133.102Z" fill="white"/>
<path id="Vector_20" d="M249.514 388.689H247.769V386.919H247.061V388.689H245.316V389.407H247.061V391.176H247.769V389.407H249.514V388.689Z" fill="white"/>
<path id="Vector_21" d="M272.276 315.175H270.531V313.406H269.823V315.175H268.078V315.893H269.823V317.663H270.531V315.893H272.276V315.175Z" fill="white"/>
<g id="Group_2" opacity="0.7">
<path id="Vector_22" opacity="0.7" d="M630.719 484.82C636.083 484.82 640.431 480.411 640.431 474.973C640.431 469.534 636.083 465.125 630.719 465.125C625.355 465.125 621.007 469.534 621.007 474.973C621.007 480.411 625.355 484.82 630.719 484.82Z" fill="url(#paint1_linear)"/>
</g>
<path id="Vector_23" opacity="0.2" d="M630.719 484.094C635.687 484.094 639.714 480.01 639.714 474.973C639.714 469.936 635.687 465.852 630.719 465.852C625.751 465.852 621.724 469.936 621.724 474.973C621.724 480.01 625.751 484.094 630.719 484.094Z" fill="black"/>
<path id="Vector_24" opacity="0.2" d="M654.939 549.375C660.494 549.375 664.997 544.809 664.997 539.177C664.997 533.545 660.494 528.98 654.939 528.98C649.385 528.98 644.882 533.545 644.882 539.177C644.882 544.809 649.385 549.375 654.939 549.375Z" fill="black"/>
<g id="Group_3" opacity="0.7">
<path id="Vector_25" opacity="0.7" d="M564.81 262.45C564.88 241.027 559.817 219.906 550.057 200.904C545.429 191.98 541.205 186.441 537.951 183.03C536.708 181.699 535.084 180.796 533.309 180.45C531.533 180.103 529.695 180.33 528.054 181.099C526.741 181.571 525.555 182.346 524.589 183.364C520.197 187.98 516.226 194.083 512.786 200.571C502.525 220.026 497.202 241.765 497.3 263.827V277.059H488.928V123.186C488.928 90.9422 481.813 59.1349 467.852 30.9263C461.243 17.5572 455.207 9.24845 450.579 4.14526C449.455 2.84654 448.071 1.80596 446.519 1.09307C444.967 0.380184 443.283 0.0114136 441.579 0.0114136C439.875 0.0114136 438.191 0.380184 436.639 1.09307C435.087 1.80596 433.703 2.84654 432.58 4.14526C426.308 11.0606 420.642 20.2071 415.719 29.9262C401.059 58.7503 393.615 91.4722 393.615 124.656V276.999H386.381V263.126C386.473 241.078 381.151 219.354 370.895 199.913C367.43 193.425 363.459 187.322 359.092 182.706C357.824 181.34 356.157 180.422 354.336 180.086C352.516 179.751 350.637 180.016 348.976 180.842L349.279 181.005C348.22 181.482 347.262 182.161 346.455 183.005C343.209 186.424 338.986 191.955 334.357 200.879C324.598 219.88 319.535 241.001 319.604 262.425V492.368H345.435L342.585 511.267V567.796H363.712V511.267L360.888 492.359H386.348V282.932H393.581V491.453H414.21L411.251 511.267V567.796H432.377V511.267L429.418 491.427H457.239L454.263 511.267V567.796H475.389V511.267L472.43 491.427H488.903V282.957H497.275V492.701H504.061V492.385H526.503L523.687 511.267V567.796H544.813V511.267L541.989 492.359H564.81V262.45Z" fill="url(#paint2_linear)"/>
</g>
<path id="Vector_26" d="M367.902 500.275H347.896L351.471 475.648H364.327L367.902 500.275Z" fill="#535461"/>
<g id="Group_4" opacity="0.1">
<path id="Vector_27" opacity="0.1" d="M350.476 485.427H365.322L364.327 478.546H351.471L350.476 485.427Z" fill="black"/>
</g>
<path id="Vector_28" d="M539.334 500.275H519.337L522.903 475.648H535.768L539.334 500.275Z" fill="#535461"/>
<g id="Group_5" opacity="0.1">
<path id="Vector_29" opacity="0.1" d="M521.908 485.427H536.762L535.767 478.546H522.903L521.908 485.427Z" fill="black"/>
</g>
<path id="Vector_30" d="M432.9 500.275H412.903L416.469 475.648H429.334L432.9 500.275Z" fill="#535461"/>
<g id="Group_6" opacity="0.1">
<path id="Vector_31" opacity="0.1" d="M415.474 485.427H430.329L429.334 478.546H416.469L415.474 485.427Z" fill="black"/>
</g>
<path id="Vector_32" d="M473.619 500.275H453.622L457.188 475.648H470.044L473.619 500.275Z" fill="#535461"/>
<g id="Group_7" opacity="0.1">
<path id="Vector_33" opacity="0.1" d="M456.193 485.427H471.048L470.044 478.546H457.188L456.193 485.427Z" fill="black"/>
</g>
<path id="Vector_34" d="M510.763 272.127H367.902V277.923H510.763V272.127Z" fill="#535461"/>
<path id="Vector_35" d="M532.842 182.595C532.087 181.749 531.166 181.074 530.138 180.611C529.11 180.149 527.998 179.91 526.873 179.91C525.749 179.91 524.637 180.149 523.609 180.611C522.581 181.074 521.66 181.749 520.905 182.595C516.749 187.091 512.989 193.032 509.709 199.349C499.982 218.359 494.951 239.479 495.049 260.895V483.863H558.277V259.955C558.356 239.131 553.569 218.585 544.308 199.999C539.915 191.314 535.919 185.877 532.842 182.595Z" fill="#E0E0E0"/>
<path id="Vector_36" d="M351.53 182.595C352.285 181.749 353.206 181.074 354.234 180.611C355.262 180.149 356.374 179.91 357.499 179.91C358.623 179.91 359.736 180.149 360.764 180.611C361.792 181.074 362.713 181.749 363.467 182.595C367.632 187.091 371.384 193.032 374.671 199.349C384.395 218.36 389.426 239.479 389.332 260.895V483.863H326.104V259.955C326.025 239.131 330.812 218.585 340.073 199.999C344.457 191.314 348.453 185.877 351.53 182.595Z" fill="#E0E0E0"/>
<path id="Vector_37" d="M326.467 262.707L341.473 262.784V281.539H326.467V262.707Z" fill="#535461"/>
<path id="Vector_38" d="M374.326 262.707L389.332 262.784V281.539H374.326V262.707Z" fill="#535461"/>
<path id="Vector_39" d="M495.049 262.707L510.047 262.784V281.539H495.049V262.707Z" fill="#535461"/>
<path id="Vector_40" d="M542.908 262.707L557.906 262.784V281.539H542.908V262.707Z" fill="#535461"/>
<g id="Group_8" opacity="0.1">
<path id="Vector_41" opacity="0.1" d="M374.671 197.058C371.384 190.741 367.632 184.8 363.467 180.304C362.292 178.982 360.72 178.088 358.995 177.759C357.269 177.43 355.485 177.685 353.916 178.483C354.82 178.941 355.636 179.557 356.327 180.304C360.483 184.8 364.243 190.741 367.522 197.058C377.251 216.068 382.282 237.188 382.183 258.604V481.555H389.332V258.613C389.428 237.194 384.397 216.072 374.671 197.058Z" fill="black"/>
</g>
<g id="Group_9" opacity="0.1">
<path id="Vector_42" opacity="0.1" d="M515.425 197.674C518.705 191.357 522.464 185.416 526.621 180.92C527.398 180.068 528.339 179.387 529.386 178.919C527.841 178.234 526.122 178.058 524.473 178.417C522.824 178.776 521.328 179.651 520.197 180.92C516.032 185.416 512.272 191.357 508.993 197.674C499.269 216.685 494.238 237.804 494.332 259.22V482.205H500.765V259.237C500.664 237.815 505.695 216.689 515.425 197.674Z" fill="black"/>
</g>
<path id="Vector_43" d="M358.173 555.325H357.625C355.045 555.325 352.57 554.285 350.746 552.435C348.921 550.585 347.896 548.076 347.896 545.46V500.275H367.902V545.46C367.902 548.076 366.877 550.585 365.052 552.435C363.228 554.285 360.753 555.325 358.173 555.325Z" fill="url(#paint3_linear)"/>
<path id="Vector_44" d="M423.18 555.325H422.623C420.045 555.322 417.572 554.282 415.75 552.432C413.927 550.583 412.903 548.075 412.903 545.46V500.275H432.9V545.46C432.9 548.075 431.876 550.583 430.054 552.432C428.231 554.282 425.759 555.322 423.18 555.325Z" fill="url(#paint4_linear)"/>
<path id="Vector_45" d="M463.89 555.325H463.325C460.75 555.318 458.281 554.276 456.462 552.426C454.643 550.577 453.622 548.072 453.622 545.46V500.275H473.619V545.46C473.619 548.076 472.594 550.585 470.769 552.435C468.945 554.285 466.47 555.325 463.89 555.325Z" fill="url(#paint5_linear)"/>
<path id="Vector_46" d="M529.613 555.325H529.082C527.803 555.327 526.536 555.073 525.354 554.579C524.172 554.084 523.097 553.358 522.192 552.441C521.287 551.525 520.569 550.437 520.079 549.239C519.589 548.041 519.337 546.757 519.337 545.46V500.275H539.334V545.46C539.334 548.075 538.31 550.583 536.487 552.432C534.664 554.282 532.192 555.322 529.613 555.325Z" fill="url(#paint6_linear)"/>
<path id="Vector_47" d="M450.123 7.76994C449.079 6.50978 447.775 5.49661 446.303 4.80153C444.832 4.10644 443.228 3.74626 441.604 3.74626C439.981 3.74626 438.377 4.10644 436.905 4.80153C435.434 5.49661 434.13 6.50978 433.086 7.76994C427.184 14.5058 421.789 23.4043 417.068 32.8756C403.191 60.9474 396.144 92.8146 396.144 125.126V482.956H486.349V123.69C486.349 92.2931 479.604 61.2893 466.419 33.8501C460.223 20.8314 454.516 12.7364 450.123 7.76994Z" fill="#E0E0E0"/>
<path id="Vector_48" d="M454.929 45.5184H426.4C421.279 45.5184 417.127 49.7282 417.127 54.9213V57.99C417.127 63.1831 421.279 67.3929 426.4 67.3929H454.929C460.05 67.3929 464.202 63.1831 464.202 57.99V54.9213C464.202 49.7282 460.05 45.5184 454.929 45.5184Z" fill="#535461"/>
<g id="Group_10" opacity="0.1">
<path id="Vector_49" opacity="0.1" d="M485.919 135.359H396.633V138.872H485.919V135.359Z" fill="black"/>
</g>
<path id="Vector_50" d="M641.586 266.127C639.244 263.009 636.316 260.394 632.97 258.433C629.125 256.186 624.823 254.864 620.394 254.572C615.966 254.279 611.53 255.023 607.431 256.747C603.331 258.47 599.677 261.126 596.751 264.509C593.826 267.892 591.707 271.913 590.558 276.259C589.409 280.606 589.261 285.162 590.126 289.575C590.991 293.989 592.846 298.141 595.546 301.712C598.247 305.283 601.721 308.176 605.7 310.168C609.679 312.161 614.057 313.198 618.495 313.201C619.11 313.201 619.726 313.201 620.324 313.132C625.54 312.799 630.569 311.039 634.878 308.04C639.186 305.041 642.613 300.914 644.795 296.099C646.976 291.283 647.83 285.959 647.267 280.69C646.703 275.422 644.743 270.407 641.594 266.178L641.586 266.127Z" fill="url(#paint7_linear)"/>
<path id="Vector_51" opacity="0.2" d="M645.843 283.804C645.842 290.857 643.191 297.644 638.431 302.786C633.67 307.927 627.156 311.037 620.215 311.483C619.65 311.483 619.068 311.543 618.486 311.543C614.287 311.545 610.144 310.568 606.377 308.686C602.611 306.805 599.322 304.07 596.764 300.693C594.207 297.316 592.451 293.387 591.631 289.212C590.812 285.036 590.951 280.725 592.038 276.613C593.125 272.5 595.13 268.697 597.9 265.496C600.669 262.296 604.127 259.785 608.007 258.157C611.887 256.529 616.084 255.828 620.274 256.109C624.464 256.39 628.534 257.644 632.169 259.776C635.337 261.64 638.106 264.127 640.313 267.093C643.907 271.901 645.85 277.771 645.843 283.804Z" fill="black"/>
<path id="Vector_52" opacity="0.1" d="M611.751 266.204C610.336 266.821 608.972 267.55 607.67 268.383C606.801 268.865 606.054 269.543 605.487 270.367C605.206 270.781 605.051 271.27 605.042 271.774C605.033 272.277 605.17 272.771 605.436 273.196C606.102 274.119 607.384 274.256 608.513 274.324C609.7 274.477 610.905 274.355 612.037 273.965C612.802 273.582 613.497 273.07 614.094 272.452L616.446 270.29C617.289 269.537 618.132 268.503 617.804 267.443C617.609 267.065 617.325 266.741 616.976 266.502C616.627 266.263 616.225 266.117 615.806 266.075C613.778 265.675 611.676 266.049 609.904 267.127" fill="black"/>
<g id="Group_11" opacity="0.1">
<path id="Vector_53" opacity="0.1" d="M601.929 296.216C602.725 296.216 603.371 295.561 603.371 294.754C603.371 293.947 602.725 293.292 601.929 293.292C601.133 293.292 600.488 293.947 600.488 294.754C600.488 295.561 601.133 296.216 601.929 296.216Z" fill="black"/>
</g>
<g id="Group_12" opacity="0.1">
<path id="Vector_54" opacity="0.1" d="M631.199 290.856C634.114 290.856 636.477 288.46 636.477 285.505C636.477 282.55 634.114 280.154 631.199 280.154C628.285 280.154 625.922 282.55 625.922 285.505C625.922 288.46 628.285 290.856 631.199 290.856Z" fill="black"/>
</g>
<g id="Group_13" opacity="0.1">
<path id="Vector_55" opacity="0.1" d="M640.363 267.093C640.348 268.492 639.937 269.857 639.178 271.025C638.419 272.194 637.345 273.117 636.084 273.684C634.823 274.252 633.427 274.439 632.063 274.225C630.7 274.012 629.426 273.405 628.392 272.477C627.359 271.55 626.611 270.341 626.236 268.995C625.861 267.648 625.875 266.221 626.278 264.883C626.68 263.544 627.453 262.351 628.505 261.446C629.557 260.541 630.844 259.961 632.211 259.775C635.383 261.639 638.155 264.127 640.363 267.093Z" fill="black"/>
</g>
<g id="Group_14" opacity="0.1">
<path id="Vector_56" opacity="0.1" d="M640.852 299.772C638.499 303.168 635.422 305.985 631.85 308.012C628.277 310.039 624.301 311.225 620.215 311.483C620.215 311.098 620.164 310.713 620.164 310.32C620.166 307.886 620.835 305.5 622.096 303.428C623.357 301.357 625.16 299.681 627.305 298.587C629.45 297.494 631.852 297.025 634.244 297.234C636.636 297.444 638.924 298.322 640.852 299.772Z" fill="black"/>
</g>
<path id="Vector_57" d="M267.884 424.479C266.251 422.291 264.205 420.454 261.864 419.077C259.178 417.479 256.164 416.531 253.057 416.308C249.951 416.085 246.835 416.592 243.953 417.789C241.071 418.987 238.501 420.843 236.442 423.213C234.384 425.583 232.893 428.403 232.085 431.453C231.278 434.503 231.175 437.701 231.787 440.797C232.398 443.894 233.706 446.806 235.609 449.306C237.511 451.806 239.958 453.827 242.757 455.211C245.557 456.596 248.634 457.306 251.748 457.287C252.178 457.287 252.591 457.287 253.029 457.244C256.662 456.996 260.161 455.759 263.158 453.663C266.155 451.567 268.539 448.691 270.058 445.336C271.577 441.981 272.175 438.273 271.79 434.602C271.404 430.932 270.049 427.434 267.867 424.479H267.884Z" fill="url(#paint8_linear)"/>
<path id="Vector_58" opacity="0.2" d="M270.851 436.814C270.85 441.735 269.001 446.47 265.679 450.057C262.358 453.644 257.813 455.814 252.97 456.124C252.574 456.124 252.127 456.124 251.765 456.124C248.838 456.124 245.95 455.44 243.325 454.127C240.7 452.814 238.408 450.906 236.626 448.551C234.844 446.196 233.621 443.457 233.05 440.546C232.479 437.635 232.576 434.63 233.333 431.763C234.091 428.896 235.489 426.244 237.419 424.013C239.348 421.781 241.759 420.029 244.463 418.893C247.167 417.757 250.093 417.267 253.014 417.46C255.935 417.653 258.773 418.526 261.308 420.009C263.522 421.315 265.454 423.059 266.99 425.138C269.503 428.496 270.86 432.598 270.851 436.814Z" fill="black"/>
<path id="Vector_59" opacity="0.1" d="M247.061 424.539C246.075 424.965 245.125 425.471 244.22 426.052C243.616 426.394 243.095 426.867 242.694 427.437C242.506 427.731 242.407 428.074 242.407 428.424C242.407 428.775 242.506 429.117 242.694 429.412C242.974 429.692 243.31 429.907 243.679 430.043C244.049 430.179 244.443 430.232 244.835 430.198C245.664 430.307 246.506 430.222 247.297 429.95C247.833 429.682 248.32 429.323 248.738 428.89L250.374 427.386C250.947 426.856 251.571 426.138 251.318 425.403C251.189 425.134 250.993 424.904 250.749 424.736C250.505 424.568 250.221 424.467 249.927 424.445C248.516 424.165 247.053 424.427 245.821 425.18" fill="black"/>
<g id="Group_15" opacity="0.1">
<path id="Vector_60" opacity="0.1" d="M240.207 445.465C240.761 445.465 241.21 445.01 241.21 444.448C241.21 443.886 240.761 443.431 240.207 443.431C239.653 443.431 239.204 443.886 239.204 444.448C239.204 445.01 239.653 445.465 240.207 445.465Z" fill="black"/>
</g>
<g id="Group_16" opacity="0.1">
<path id="Vector_61" opacity="0.1" d="M260.634 441.738C262.668 441.738 264.318 440.066 264.318 438.003C264.318 435.939 262.668 434.267 260.634 434.267C258.599 434.267 256.95 435.939 256.95 438.003C256.95 440.066 258.599 441.738 260.634 441.738Z" fill="black"/>
</g>
<g id="Group_17" opacity="0.1">
<path id="Vector_62" opacity="0.1" d="M266.999 425.155C266.991 426.14 266.704 427.102 266.171 427.926C265.638 428.75 264.883 429.401 263.995 429.802C263.107 430.202 262.124 430.334 261.163 430.182C260.203 430.031 259.306 429.603 258.58 428.948C257.854 428.293 257.329 427.44 257.068 426.491C256.807 425.542 256.821 424.537 257.109 423.596C257.397 422.655 257.946 421.817 258.691 421.184C259.435 420.551 260.344 420.149 261.308 420.026C263.525 421.331 265.46 423.075 266.999 425.155Z" fill="black"/>
</g>
<g id="Group_18" opacity="0.1">
<path id="Vector_63" opacity="0.1" d="M267.37 447.952C265.727 450.322 263.581 452.287 261.088 453.702C258.596 455.116 255.821 455.944 252.97 456.124C252.97 455.859 252.97 455.586 252.97 455.27C252.972 453.571 253.438 451.907 254.318 450.461C255.198 449.016 256.456 447.847 257.952 447.084C259.448 446.321 261.124 445.994 262.793 446.14C264.462 446.286 266.058 446.898 267.403 447.91L267.37 447.952Z" fill="black"/>
</g>
<path id="Vector_64" d="M805.017 367.626C805.874 367.626 806.568 366.922 806.568 366.054C806.568 365.185 805.874 364.481 805.017 364.481C804.16 364.481 803.466 365.185 803.466 366.054C803.466 366.922 804.16 367.626 805.017 367.626Z" fill="white"/>
</g>
<defs>
<linearGradient id="paint0_linear" x1="233.909" y1="595.894" x2="233.909" y2="572.31" gradientUnits="userSpaceOnUse">
<stop stop-color="#808080" stop-opacity="0.25"/>
<stop offset="0.54" stop-color="#808080" stop-opacity="0.12"/>
<stop offset="1" stop-color="#808080" stop-opacity="0.1"/>
</linearGradient>
<linearGradient id="paint1_linear" x1="15152.8" y1="11635.2" x2="15152.8" y2="11181.6" gradientUnits="userSpaceOnUse">
<stop stop-color="#808080" stop-opacity="0.25"/>
<stop offset="0.54" stop-color="#808080" stop-opacity="0.12"/>
<stop offset="1" stop-color="#808080" stop-opacity="0.1"/>
</linearGradient>
<linearGradient id="paint2_linear" x1="136883" y1="401514" x2="136883" y2="24352.3" gradientUnits="userSpaceOnUse">
<stop stop-color="#808080" stop-opacity="0.25"/>
<stop offset="0.54" stop-color="#808080" stop-opacity="0.12"/>
<stop offset="1" stop-color="#808080" stop-opacity="0.1"/>
</linearGradient>
<linearGradient id="paint3_linear" x1="357.903" y1="500.275" x2="357.903" y2="555.325" gradientUnits="userSpaceOnUse">
<stop stop-color="#E0E0E0"/>
<stop offset="0.31" stop-color="#FCCC63"/>
<stop offset="0.77" stop-color="#F55F44"/>
</linearGradient>
<linearGradient id="paint4_linear" x1="11092.2" y1="35079" x2="11092.2" y2="38624.2" gradientUnits="userSpaceOnUse">
<stop stop-color="#E0E0E0"/>
<stop offset="0.31" stop-color="#FCCC63"/>
<stop offset="0.77" stop-color="#F55F44"/>
</linearGradient>
<linearGradient id="paint5_linear" x1="12098.8" y1="35079" x2="12098.8" y2="38624.2" gradientUnits="userSpaceOnUse">
<stop stop-color="#E0E0E0"/>
<stop offset="0.31" stop-color="#FCCC63"/>
<stop offset="0.77" stop-color="#F55F44"/>
</linearGradient>
<linearGradient id="paint6_linear" x1="13723.3" y1="35079" x2="13723.3" y2="38624.2" gradientUnits="userSpaceOnUse">
<stop stop-color="#E0E0E0"/>
<stop offset="0.31" stop-color="#FCCC63"/>
<stop offset="0.77" stop-color="#F55F44"/>
</linearGradient>
<linearGradient id="paint7_linear" x1="44916.3" y1="24272.6" x2="44916.3" y2="20242.9" gradientUnits="userSpaceOnUse">
<stop stop-color="#808080" stop-opacity="0.25"/>
<stop offset="0.54" stop-color="#808080" stop-opacity="0.12"/>
<stop offset="1" stop-color="#808080" stop-opacity="0.1"/>
</linearGradient>
<linearGradient id="paint8_linear" x1="13642.3" y1="24125.8" x2="13642.3" y2="22160" gradientUnits="userSpaceOnUse">
<stop stop-color="#808080" stop-opacity="0.25"/>
<stop offset="0.54" stop-color="#808080" stop-opacity="0.12"/>
<stop offset="1" stop-color="#808080" stop-opacity="0.1"/>
</linearGradient>
<clipPath id="clip0">
<rect width="957" height="696" fill="white"/>
</clipPath>
</defs>
</svg>
